<?xml version="1.0" encoding="UTF-8" standalone="no"?> <svg width="64" height="64" viewBox="0 0 64 64" fill="none" xmlns="http://www.w3.org/2000/svg">
<path d="M61 35.7C60.9883 35.4483 60.9146 35.2035 60.7855 34.9872C60.6564 34.7708 60.4759 34.5898 60.26 34.46L47.26 26.96V11.96C47.2562 11.6973 47.1854 11.44 47.0541 11.2124C46.9228 10.9849 46.7355 10.7947 46.51 10.66L32.75 2.69996C32.5223 2.56732 32.2635 2.49744 32 2.49744C31.7365 2.49744 31.4777 2.56732 31.25 2.69996L17.5 10.64C17.2764 10.7768 17.0906 10.9675 16.9596 11.1945C16.8286 11.4216 16.7565 11.6779 16.75 11.94V27L3.75 34.5C3.53247 34.6337 3.3506 34.8182 3.21998 35.0377C3.08936 35.2571 3.01388 35.505 3 35.76V51.64C3.00084 51.9032 3.07049 52.1617 3.20205 52.3897C3.33361 52.6178 3.52251 52.8075 3.75 52.94L17.5 60.88C17.7302 61.0051 17.988 61.0707 18.25 61.0707C18.512 61.0707 18.7698 61.0051 19 60.88L32 53.37L45 60.88C45.1786 60.9828 45.377 61.0467 45.5821 61.0674C45.7873 61.0881 45.9944 61.0651 46.19 61C46.2956 60.966 46.3991 60.926 46.5 60.88L60.25 52.94C60.4775 52.8075 60.6664 52.6178 60.7979 52.3897C60.9295 52.1617 60.9992 51.9032 61 51.64C61 51.64 61 35.75 61 35.7ZM45.75 42L35 35.76L45.75 29.56L56.5 35.76L45.75 42ZM30.5 20.74V33.15L19.75 27V14.54L30.5 20.74ZM44.25 27L33.5 33.15V20.74L44.25 14.54V27ZM18.25 29.61L29 35.76L18.25 42L7.5 35.76L18.25 29.61ZM19.75 44.61L30.5 38.36V50.77L19.75 57V44.61ZM32 5.72996L42.75 11.94L32 18.14L21.25 11.94L32 5.72996ZM6 38.36L16.75 44.57V57L6 50.77V38.36ZM33.5 38.36L44.25 44.57V57L33.5 50.77V38.36ZM47.25 57V44.57L58 38.36V50.77L47.25 57Z" fill="black"/>
</svg>
