<svg id="Layer_1" enable-background="new 0 0 100 100" viewBox="0 0 100 100" xmlns="http://www.w3.org/2000/svg"><g><path d="m55.5 90.7h-11.2c-.3 0-.5-.2-.5-.5v-18c0-.3.2-.5.5-.5h11.2c.3 0 .5.2.5.5v18c0 .2-.2.5-.5.5zm-10.7-1h10.2v-17h-10.2z"/><path d="m91.2 87.5h-4.5c-.3 0-.5-.2-.5-.5v-25.3c0-.3.2-.5.5-.5h4.5c.3 0 .5.2.5.5v25.3c0 .3-.2.5-.5.5zm-4-1h3.5v-24.3h-3.5z"/><path d="m92.2 90.7h-6.4c-.3 0-.5-.2-.5-.5v-2.5c0-.6.5-1.1 1.1-1.1h5.1c.6 0 1.1.5 1.1 1.1v2.5c0 .2-.2.4-.4.5zm-5.9-1h5.4v-2c0-.1 0-.1-.1-.1h-5.1c-.1 0-.1.1-.1.1z"/><path d="m91.8 62.2h-5.6c-.5 0-.9-.4-.9-.9v-1.8c0-.3.2-.5.5-.5h6.4c.3 0 .5.2.5.5v1.8c0 .5-.4.9-.9.9zm-5.5-1h5.4v-1.2h-5.4z"/><path d="m77.1 87.5h-4.5c-.3 0-.5-.2-.5-.5v-25.3c0-.3.2-.5.5-.5h4.5c.3 0 .5.2.5.5v25.3c0 .3-.2.5-.5.5zm-4-1h3.5v-24.3h-3.6z"/><path d="m78 90.7h-6.3c-.3 0-.5-.2-.5-.5v-2.5c0-.6.5-1.1 1.1-1.1h5.1c.6 0 1.1.5 1.1 1.1v2.5c0 .2-.2.5-.5.5zm-5.9-1h5.4v-2c0-.1 0-.1-.1-.1h-5.1c-.1 0-.1.1-.1.1z"/><path d="m77.6 62.2h-5.6c-.5 0-.9-.4-.9-.9v-1.8c0-.3.2-.5.5-.5h6.4c.3 0 .5.2.5.5v1.8c0 .5-.4.9-.9.9zm-5.4-1h5.4v-1.2h-5.4z"/><path d="m63 87.5h-4.6c-.3 0-.5-.2-.5-.5v-25.3c0-.3.2-.5.5-.5h4.6c.3 0 .5.2.5.5v25.3c0 .3-.2.5-.5.5zm-4-1h3.5v-24.3h-3.6z"/><path d="m63.9 90.7h-6.4c-.3 0-.5-.2-.5-.5v-2.5c0-.6.5-1.1 1.1-1.1h5.1c.6 0 1.1.5 1.1 1.1v2.5c.1.2-.2.4-.4.5zm-5.9-1h5.4v-2c0-.1 0-.1-.1-.1h-5.1c-.1 0-.1.1-.1.1v2z"/><path d="m63.5 62.2h-5.6c-.5 0-.9-.4-.9-.9v-1.8c0-.3.2-.5.5-.5h6.4c.3 0 .5.2.5.5v1.8c0 .5-.4.9-.9.9zm-5.5-1h5.4v-1.2h-5.4z"/><path d="m41.5 87.5h-4.5c-.3 0-.5-.2-.5-.5v-25.3c0-.3.2-.5.5-.5h4.5c.3 0 .5.2.5.5v25.3c0 .3-.2.5-.5.5zm-4-1h3.5v-24.3h-3.6z"/><path d="m42.4 90.7h-6.4c-.3 0-.5-.2-.5-.5v-2.5c0-.6.5-1.1 1.1-1.1h5.1c.6 0 1.1.5 1.1 1.1v2.5c.1.2-.2.4-.4.5zm-5.9-1h5.4v-2c0-.1 0-.1-.1-.1h-5.1c-.1 0-.1.1-.1.1v2z"/><path d="m42 62.2h-5.6c-.5 0-.9-.4-.9-.9v-1.8c0-.3.2-.5.5-.5h6.4c.3 0 .5.2.5.5v1.8c0 .5-.4.9-.9.9zm-5.5-1h5.4v-1.2h-5.4z"/><path d="m85 79.5h-6.2c-.3 0-.5-.2-.5-.5v-9.2c0-1.6 1.3-2.9 2.8-2.9h1.6c1.6 0 2.9 1.3 2.8 2.9v9.2c0 .3-.2.5-.5.5zm-5.8-1h5.3v-8.7c0-1-.8-1.8-1.8-1.9h-1.6c-1 0-1.9.8-1.9 1.9z"/><path d="m21.1 79.5h-6.3c-.3 0-.5-.2-.5-.5v-9.2c0-1.6 1.3-2.9 2.9-2.9h1.6c1.6 0 2.9 1.3 2.9 2.9v9.2c-.1.3-.3.5-.6.5zm-5.8-1h5.3v-8.7c0-1-.8-1.9-1.8-1.9h-1.6c-1 0-1.9.8-1.9 1.9z"/><path d="m27.3 87.5h-4.5c-.3 0-.5-.2-.5-.5v-25.3c0-.3.2-.5.5-.5h4.5c.3 0 .5.2.5.5v25.3c0 .3-.2.5-.5.5zm-4-1h3.5v-24.3h-3.5z"/><path d="m28.2 90.7h-6.4c-.3 0-.5-.2-.5-.5v-2.5c0-.6.5-1.1 1.1-1.1h5.1c.6 0 1.1.5 1.1 1.1v2.5c.1.2-.1.5-.4.5zm-5.8-1h5.4v-2c0-.1 0-.1-.1-.1h-5.1c-.1 0-.1.1-.1.1z"/><path d="m27.9 62.2h-5.6c-.5 0-.9-.4-.9-.9v-1.8c0-.3.2-.5.5-.5h6.4c.3 0 .5.2.5.5v1.8c-.1.5-.5.9-.9.9zm-5.5-1h5.4v-1.2h-5.4z"/><path d="m13.2 87.5h-4.6c-.3 0-.5-.2-.5-.5v-25.3c0-.3.2-.5.5-.5h4.5c.3 0 .5.2.5.5v25.3c.1.3-.1.5-.4.5zm-4-1h3.5v-24.3h-3.6z"/><path d="m14.1 90.7h-6.4c-.3 0-.5-.2-.5-.5v-2.5c0-.6.5-1.1 1.1-1.1h5.1c.6 0 1.1.5 1.1 1.1v2.5c.1.2-.1.5-.4.5zm-5.9-1h5.4v-2c0-.1 0-.1-.1-.1h-5.1c-.1 0-.1.1-.1.1v2z"/><path d="m13.7 62.2h-5.6c-.5 0-.9-.4-.9-.9v-1.8c0-.3.2-.5.5-.5h6.4c.3 0 .5.2.5.5v1.8c0 .5-.4.9-.9.9zm-5.5-1h5.4v-1.2h-5.4z"/><path d="m89.6 48.5h-19.8c-.3 0-.5-.2-.5-.5v-19.9c0-.3.2-.5.5-.5h19.9c.3 0 .5.2.5.5v19.9c-.1.3-.3.5-.6.5zm-19.3-1h18.9v-18.9h-18.9z"/><path d="m74.8 46.9h-2.5c-.3 0-.5-.2-.5-.5v-16.7c0-.3.2-.5.5-.5h2.5c.3 0 .5.2.5.5v16.7c0 .3-.3.5-.5.5zm-2-1h1.5v-15.7h-1.4z"/><path d="m74.9 30.2h-2.8c-.5 0-.8-.4-.8-.8v-1.3c0-.3.2-.5.5-.5h3.5c.3 0 .5.2.5.5v1.3c0 .4-.4.8-.9.8zm-2.6-1h2.5v-.6h-2.5z"/><path d="m87.3 46.9h-2.5c-.3 0-.5-.2-.5-.5v-16.7c0-.3.2-.5.5-.5h2.5c.3 0 .5.2.5.5v16.7c0 .3-.2.5-.5.5zm-2-1h1.5v-15.7h-1.5z"/><path d="m87.5 30.2h-2.8c-.5 0-.8-.4-.8-.8v-1.3c0-.3.2-.5.5-.5h3.4c.3 0 .5.2.5.5v1.3c0 .4-.4.8-.8.8zm-2.7-1h2.4v-.6h-2.5z"/><path d="m90.3 22.1h-20.1c-.8 0-1.5-.7-1.5-1.5v-9.6c0-.5.3-1 .7-1.3s1-.3 1.4-.1l20.2 9.6c.8.3 1.1 1.2.8 2-.3.5-.8.9-1.5.9zm-20.1-11.6c-.1 0-.2 0-.3.1s-.2.2-.2.4v9.5c0 .3.2.5.5.5h20.1c.3 0 .5-.2.5-.5 0-.2-.1-.4-.3-.5l-20.2-9.5c0 .1 0 0-.1 0zm15.7 9.6h-14.7c-.3 0-.5-.2-.5-.5v-7c0-.2.1-.3.2-.4s.3-.1.5 0l14.7 7c.2.1.3.3.3.6-.1.1-.3.3-.5.3zm-14.2-1h12l-12-5.7z"/><path d="m89.3 28.6h-19.3c-.8 0-1.5-.7-1.5-1.5v-4.5c0-.8.7-1.5 1.5-1.5h19.3c.8 0 1.5.7 1.5 1.5v4.5c0 .8-.6 1.5-1.5 1.5zm-19.3-6.5c-.3 0-.5.2-.5.5v4.5c0 .3.2.5.5.5h19.3c.3 0 .5-.2.5-.5v-4.5c0-.3-.2-.5-.5-.5z"/><path d="m75.3 48.5h-3.5c-.3 0-.5-.2-.5-.5v-1.3c0-.5.4-.8.8-.8h2.8c.5 0 .8.4.8.8v1.3c.1.3-.1.5-.4.5zm-3-1h2.5v-.7h-2.4z"/><path d="m87.8 48.5h-3.5c-.3 0-.5-.2-.5-.5v-1.3c0-.5.4-.8.8-.8h2.8c.5 0 .8.4.8.8v1.3c.1.3-.1.5-.4.5zm-3-1h2.4v-.7h-2.4z"/><path d="m30.1 48.5h-19.9c-.3 0-.5-.2-.5-.5v-19.9c0-.3.2-.5.5-.5h19.9c.3 0 .5.2.5.5v19.9c0 .3-.2.5-.5.5zm-19.4-1h18.9v-18.9h-18.9z"/><path d="m95 53.4h-89.8c-.3 0-.5-.2-.5-.5v-4.9c0-.3.2-.5.5-.5h29.8c.3 0 .5.2.5.5s-.2.5-.5.5h-29.3v3.9h88.8v-3.9h-29.4c-.3 0-.5-.2-.5-.5s.2-.5.5-.5h29.9c.3 0 .5.2.5.5v4.9c0 .3-.2.5-.5.5z"/><path d="m57.5 43.7c-.3 0-.5-.2-.5-.5v-13.2h-1.5v11.6c0 .3-.2.5-.5.5s-.5-.2-.5-.5v-12.1c0-.3.2-.5.5-.5h2.5c.3 0 .5.2.5.5v13.7c0 .2-.2.5-.5.5z"/><path d="m57.7 30h-2.8c-.5 0-.8-.4-.8-.8v-1.8c0-.3.2-.5.5-.5s.5.2.5.5v1.6h2.5v-1.2c0-.3.2-.5.5-.5s.5.2.5.5v1.4c-.1.4-.4.8-.9.8z"/><path d="m42.5 43.7c-.3 0-.5-.2-.5-.5v-13.7c0-.3.2-.5.5-.5h2.5c.3 0 .5.2.5.5v12.1c0 .3-.2.5-.5.5s-.5-.2-.5-.5v-11.6h-1.5v13.2c0 .3-.2.5-.5.5z"/><path d="m45.2 30h-2.8c-.5 0-.8-.4-.8-.8v-1.5c0-.3.2-.5.5-.5s.5.2.5.5v1.3h2.4v-1.6c0-.3.2-.5.5-.5s.5.2.5.5v1.8c0 .4-.4.8-.8.8z"/><path d="m27.5 46.9h-2.5c-.3 0-.5-.2-.5-.5v-16.7c0-.3.2-.5.5-.5h2.5c.3 0 .5.2.5.5v16.7c0 .2-.2.5-.5.5zm-2-1h1.5v-15.7h-1.4z"/><path d="m27.7 30.2h-2.8c-.5 0-.8-.4-.8-.8v-1.3c0-.3.2-.5.5-.5h3.4c.3 0 .5.2.5.5v1.3c0 .4-.3.8-.8.8zm-2.6-1h2.5v-.6h-2.4z"/><path d="m15 46.9h-2.4c-.3 0-.5-.2-.5-.5v-16.7c0-.3.2-.5.5-.5h2.4c.3 0 .5.2.5.5v16.7c0 .2-.2.5-.5.5zm-1.9-1h1.4v-15.7h-1.4z"/><path d="m28 48.5h-3.4c-.3 0-.5-.2-.5-.5v-1.3c0-.5.4-.8.8-.8h2.8c.5 0 .8.4.8.8v1.3c0 .3-.2.5-.5.5zm-3-1h2.5v-.7h-2.4z"/><path d="m15.5 48.5h-3.4c-.3 0-.5-.2-.5-.5v-1.3c0-.5.4-.8.8-.8h2.8c.5 0 .8.4.8.8v1.3c0 .3-.2.5-.5.5zm-2.9-1h2.4v-.7h-2.4z"/><path d="m15.2 30.2h-2.8c-.5 0-.8-.4-.8-.8v-1.3c0-.3.2-.5.5-.5h3.4c.3 0 .5.2.5.5v1.3c0 .4-.4.8-.8.8zm-2.6-1h2.4v-.6h-2.4z"/><path d="m95 48.5h-29.9c-.3 0-.5-.2-.5-.5s.2-.5.5-.5h29.9c.3 0 .5.2.5.5s-.2.5-.5.5z"/><path d="m35 48.5h-29.8c-.3 0-.5-.2-.5-.5s.2-.5.5-.5h29.8c.3 0 .5.2.5.5s-.2.5-.5.5z"/><path d="m95 60h-89.8c-.3 0-.5-.2-.5-.5v-4.6c0-.3.2-.5.5-.5h89.8c.3 0 .5.2.5.5v4.6c0 .3-.2.5-.5.5zm-89.3-1h88.8v-3.6h-88.8z"/><path d="m95 95.5h-89.8c-.3 0-.5-.2-.5-.5v-4.8c0-.3.2-.5.5-.5h89.8c.3 0 .5.2.5.5v4.8c0 .3-.2.5-.5.5zm-89.3-1h88.8v-3.8h-88.8z"/><path d="m95 90.7h-89.8c-.3 0-.5-.2-.5-.5s.2-.5.5-.5h89.8c.3 0 .5.2.5.5 0 .2-.2.4-.5.5z"/><path d="m95 55.4h-89.8c-.8 0-1.5-.7-1.5-1.5s.7-1.5 1.5-1.5h89.8c.8 0 1.5.7 1.5 1.5s-.7 1.5-1.5 1.5zm-89.8-2c-.3 0-.5.2-.5.5s.2.5.5.5h89.8c.3 0 .5-.2.5-.5s-.2-.5-.5-.5z"/><path d="m69.3 53.4h-38.5c-.7 0-1.3-.5-1.4-1.1-.2-.6.1-1.3.6-1.7l19.3-12.3c.5-.3 1.1-.3 1.6 0l19.2 12.3c.7.4.9 1.4.5 2.1-.3.4-.8.7-1.3.7zm-19.2-14.3c-.1 0-.2 0-.3.1l-19.3 12.3c-.2.1-.3.4-.2.6s.3.4.5.4h38.5c.2 0 .4-.2.5-.4s0-.5-.2-.6l-19.3-12.3c0-.1-.1-.1-.2-.1zm15.7 12.3h-31.6c-.2 0-.4-.1-.5-.4-.1-.2 0-.4.2-.6l15.8-10.1c.2-.1.4-.1.5 0l15.8 10.1c.2.1.3.3.2.6 0 .2-.1.4-.4.4zm-29.8-1h28.1l-14-9z"/><path d="m29.7 22.1h-20.2c-.8 0-1.5-.7-1.5-1.5 0-.6.3-1.1.8-1.3l20.2-9.6c.8-.4 1.7 0 2 .7.1.2.1.4.1.6v9.5c.1.9-.6 1.5-1.4 1.6zm0-11.6c-.1 0-.2 0-.2.1l-20.2 9.5c-.2.1-.4.4-.2.7.1.2.3.3.4.3h20.2c.3 0 .5-.2.5-.5v-9.6c-.1-.3-.3-.5-.5-.5zm-1 9.6h-14.7c-.2 0-.4-.2-.5-.4s.1-.5.3-.6l14.7-7c.1-.1.3-.1.5 0 .1.1.2.2.2.4v7c0 .3-.2.6-.5.6zm-12.5-1h12v-5.7z"/><path d="m29.8 28.6h-19.3c-.8 0-1.5-.7-1.5-1.5v-4.5c0-.8.7-1.5 1.5-1.5h19.3c.8 0 1.5.7 1.5 1.5v4.5c0 .8-.7 1.5-1.5 1.5zm-19.3-6.5c-.3 0-.5.2-.5.5v4.5c0 .3.2.5.5.5h19.3c.3 0 .5-.2.5-.5v-4.5c0-.3-.2-.5-.5-.5z"/><path d="m59.4 28.5h-.2c-6.2-1-12.5-1-18.6 0-.5.1-1.1-.2-1.2-.7 0-.1 0-.2 0-.3v-6.3c0-.2.2-.5.4-.5 6.7-1.2 13.6-1.2 20.3 0 .2 0 .4.2.4.5v6.2c0 .6-.5 1.1-1.1 1.1zm-9.6-1.8c3.2 0 6.4.3 9.6.8l.1-5.9c-6.3-1.1-12.8-1.1-19.1 0v5.8c3.1-.5 6.3-.7 9.4-.7z"/><path d="m51.7 20.8c-.1 0-.3-.1-.3-.1-.1-.1-.1-.1-.1-.2l-.6-2.3c0-.1 0-.2 0-.3l.5-1h-2.5l.5 1.1v.3l-.6 2.2c0 .2-.3.4-.5.4-.3 0-.5-.2-.5-.5v-.1l.5-2.1-.7-1.6c-.1-.1-.1-.3 0-.5.1-.1.3-.2.4-.2h4.1c.2 0 .3.1.4.2s.1.3 0 .5l-.7 1.6.5 2.1c.1.2 0 .4-.1.5-.1 0-.2 0-.3 0z"/><path d="m51.1 16.8c-.1 0-.2 0-.3-.1-.2-.1-.3-.4-.2-.7.1-.1.1-.3.1-.5 0-.5-.4-.8-.8-.8s-.8.4-.8.8c0 .1 0 .3.1.4.2.2.1.5-.1.7s-.5.1-.7-.1c-.2-.3-.3-.6-.3-1 0-1 .8-1.8 1.8-1.8s1.8.8 1.8 1.8c0 .4-.1.7-.3 1 0 .2-.2.3-.3.3z"/><path d="m82.7 42.3h-5.8c-.3 0-.5-.2-.5-.5v-8.3c0-1.6 1.3-2.9 2.9-2.9h1.1c1.6 0 2.9 1.3 2.9 2.9v8.3c-.1.3-.3.6-.6.5zm-5.3-1h4.8v-7.8c0-1-.8-1.9-1.9-1.9h-1.1c-1 0-1.9.8-1.9 1.9v7.8z"/><path d="m83.1 44h-6.7c-.4 0-.7-.3-.7-.7v-1.2c0-.4.3-.7.7-.7h6.7c.4 0 .7.3.7.7v1.2c.1.4-.3.7-.7.7zm-6.4-1h6.1v-.7h-6.1z"/><path d="m23 42.4h-5.7c-.3 0-.5-.2-.5-.5v-8.3c0-1.6 1.3-2.9 2.9-2.9h1.1c1.6 0 2.9 1.3 2.9 2.9v8.3c-.2.3-.4.5-.7.5zm-5.3-1h4.8v-7.8c0-1-.8-1.9-1.8-1.9h-1c-1 0-1.9.8-1.9 1.8z"/><path d="m23.5 44.1h-6.7c-.4 0-.7-.3-.7-.7v-1.2c0-.4.3-.7.7-.7h6.7c.4 0 .7.3.7.7v1.2c0 .3-.3.7-.7.7zm-6.4-1h6.1v-.7h-6.1z"/><path d="m85.8 81.6h-7.8c-.3 0-.5-.2-.5-.5v-2.1c0-.3.2-.5.5-.5h7.8c.3 0 .5.2.5.5v2c0 .3-.2.5-.5.6zm-7.3-1h6.8v-1h-6.8z"/><path d="m21.6 81.6h-7.3c-.4 0-.7-.3-.7-.7v-1.6c0-.4.3-.7.7-.7h7.3c.4 0 .7.3.7.7v1.6c.1.3-.3.7-.7.7zm-7-1h6.8v-1h-6.8z"/></g><g><path d="m31.3 22.1h8.1v1h-8.1z" transform="matrix(1 -.004 .004 1 -.088 .138)"/></g><g><path d="m64 18.5h1v8h-1z" transform="matrix(.004 -1 1 .004 41.693 86.963)"/></g></svg>